<svg xmlns="http://www.w3.org/2000/svg" xmlns:xlink="http://www.w3.org/1999/xlink" width="36" height="36" viewBox="0 0 36 36">
  <defs>
    <clipPath id="clip-path">
      <rect id="矩形_37372" data-name="矩形 37372" width="36" height="36" transform="translate(392 887)" fill="#d9d9d9"/>
    </clipPath>
  </defs>
  <g id="蒙版组_60105" data-name="蒙版组 60105" transform="translate(-392 -887)" clip-path="url(#clip-path)">
    <path id="路径_53587" data-name="路径 53587" d="M-2266,19650.1a14.1,14.1,0,0,1,14.1-14.1,14.1,14.1,0,0,1,14.092,14.1,14.1,14.1,0,0,1-14.092,14.1A14.1,14.1,0,0,1-2266,19650.1Zm1.922,0a12.191,12.191,0,0,0,12.177,12.176,12.189,12.189,0,0,0,12.17-12.176,12.19,12.19,0,0,0-12.17-12.178A12.191,12.191,0,0,0-2264.079,19650.1Zm7.783,4.189v-8.375a1.732,1.732,0,0,1,2.611-1.494l7.119,4.188a1.731,1.731,0,0,1,0,2.984l-7.119,4.191a1.721,1.721,0,0,1-.876.24A1.732,1.732,0,0,1-2256.3,19654.287Z" transform="translate(2661.845 -18745.156)" fill="#6d6f72"/>
  </g>
</svg>
