<svg xmlns="http://www.w3.org/2000/svg" width="80" height="80" viewBox="0 0 80 80">
  <g id="组_80787" data-name="组 80787" transform="translate(-1572 -1006)">
    <circle id="椭圆_5594" data-name="椭圆 5594" cx="40" cy="40" r="40" transform="translate(1572 1006)" fill="none"/>
    <path id="路径_53582" data-name="路径 53582" d="M-1464,20461v-20a4,4,0,0,1,4-4,4,4,0,0,1,4,4v20a4,4,0,0,1-4,4A4,4,0,0,1-1464,20461Zm-20,0v-20a4,4,0,0,1,4-4,4,4,0,0,1,4,4v20a4,4,0,0,1-4,4A4,4,0,0,1-1484,20461Z" transform="translate(3082 -19405)" fill="#fff"/>
  </g>
</svg>
