<svg xmlns="http://www.w3.org/2000/svg" xmlns:xlink="http://www.w3.org/1999/xlink" width="10.996" height="10.996" viewBox="0 0 10.996 10.996">
  <defs>
    <clipPath id="clip-path">
      <path id="路径_2427" data-name="路径 2427" d="M403.5-970.5h.019l.07,0,.06.007.052.009.065.016.046.014.059.021.052.023.061.031.036.021c.026.016.05.033.074.05a.994.994,0,0,1,.112.1l-.09-.08a1.006,1.006,0,0,1,.171.17l.016.022c.018.024.035.049.05.075l.021.037c.011.02.021.04.031.061s.015.034.022.052.015.039.022.06.009.03.014.046.011.043.016.065.007.035.009.052a1,1,0,0,1,.011.148l0-.089q0,.035,0,.071v6.018a1,1,0,0,1-1,1,1,1,0,0,1-1-1h0v-3.585l-7.288,7.288a1,1,0,0,1-1.32.083l-.094-.083a1,1,0,0,1,0-1.414h0l7.287-7.289H397.5a1,1,0,0,1-.993-.883l-.007-.117a1,1,0,0,1,1-1h6Z" fill="none"/>
    </clipPath>
    <clipPath id="clip-path-2">
      <path id="路径_2426" data-name="路径 2426" d="M-80,304H2300V-1446H-80Z" fill="none"/>
    </clipPath>
  </defs>
  <g id="组_7179" data-name="组 7179" transform="translate(-393.5 970.5)" clip-path="url(#clip-path)">
    <g id="组_7178" data-name="组 7178" clip-path="url(#clip-path-2)">
      <path id="路径_2425" data-name="路径 2425" d="M388.5-975.5h21v21h-21Z"/>
    </g>
  </g>
</svg>
