<svg xmlns="http://www.w3.org/2000/svg" width="48" height="48" viewBox="0 0 48 48">
  <g id="组_80790" data-name="组 80790" transform="translate(-1572 -1006)">
    <circle id="椭圆_5594" data-name="椭圆 5594" cx="24" cy="24" r="24" transform="translate(1572 1006)" fill="none"/>
    <path id="路径_53583" data-name="路径 53583" d="M0,15.1A11.792,11.792,0,0,1,10.383,3.385L9.252,2.254A1.32,1.32,0,0,1,11.116.386L14.531,3.8l.057.055a1.321,1.321,0,0,1,0,1.87c-.019.016-.035.032-.051.047L11.12,9.189A1.32,1.32,0,0,1,9.252,7.323l1.3-1.3A9.153,9.153,0,1,0,20.94,15.1h0v-.006a1.32,1.32,0,1,1,2.639,0s0,0,0,.006h0A11.79,11.79,0,0,1,0,15.1Z" transform="matrix(0.914, 0.407, -0.407, 0.914, 1590.698, 1011.223)" fill="#fff"/>
  </g>
</svg>
