<svg xmlns="http://www.w3.org/2000/svg" xmlns:xlink="http://www.w3.org/1999/xlink" width="36" height="36" viewBox="0 0 36 36">
  <defs>
    <clipPath id="clip-path">
      <rect id="矩形_37372" data-name="矩形 37372" width="36" height="36" transform="translate(392 887)" fill="#d9d9d9"/>
    </clipPath>
  </defs>
  <g id="蒙版组_60105" data-name="蒙版组 60105" transform="translate(-392 -887)" clip-path="url(#clip-path)">
    <path id="路径_53588" data-name="路径 53588" d="M-2410,19650.143a14.145,14.145,0,0,1,14.145-14.145,14.144,14.144,0,0,1,14.139,14.145,14.146,14.146,0,0,1-14.139,14.146A14.147,14.147,0,0,1-2410,19650.143Zm1.928,0a12.231,12.231,0,0,0,12.217,12.217,12.229,12.229,0,0,0,12.211-12.217,12.229,12.229,0,0,0-12.211-12.217A12.231,12.231,0,0,0-2408.071,19650.143Zm14.31,3.5v-7a1.4,1.4,0,0,1,1.4-1.4,1.4,1.4,0,0,1,1.4,1.4v7a1.4,1.4,0,0,1-1.4,1.395A1.4,1.4,0,0,1-2393.761,19653.645Zm-6.99,0v-7a1.4,1.4,0,0,1,1.4-1.4,1.4,1.4,0,0,1,1.4,1.4v7a1.4,1.4,0,0,1-1.4,1.395A1.4,1.4,0,0,1-2400.751,19653.645Z" transform="translate(2805.857 -18745.143)" fill="#707070"/>
  </g>
</svg>
