<svg xmlns="http://www.w3.org/2000/svg" width="751.5" height="170.25" viewBox="0 0 751.5 170.25">
  <g id="组_79147" data-name="组 79147" transform="translate(8045.25 21237.25)">
    <g id="大标" transform="translate(-8045.25 -21237.25)">
      <g id="HOS_Logotype_Light备份-2" data-name="HOS Logotype Light备份-2" transform="translate(0.25 0.25)">
        <path id="Fill-1" d="M218.1,63.8a17.128,17.128,0,0,0,10.315-16.242q0-13.127-15.752-17.642L203.893,27.3a18.547,18.547,0,0,1-7.444-3.687,7.109,7.109,0,0,1-2.357-5.437,8.082,8.082,0,0,1,3.407-6.651,13.449,13.449,0,0,1,8.564-2.66,15.085,15.085,0,0,1,8.308,2.357,14.389,14.389,0,0,1,5.064,5.461q.1.21.42.77c.35-.233.607-.373.747-.467l6.231-3.827s.327-.21.607-.42c-.117-.3-.233-.537-.28-.677a19.442,19.442,0,0,0-7.934-8.424A25.749,25.749,0,0,0,206.063.35a26.153,26.153,0,0,0-11.225,2.31,18.267,18.267,0,0,0-7.748,6.557,17.347,17.347,0,0,0-2.8,9.731q0,12.846,15.4,17.455l9.474,2.777a17.829,17.829,0,0,1,7.141,3.687,7.252,7.252,0,0,1,2.334,5.437,7.9,7.9,0,0,1-3.407,6.651,14.142,14.142,0,0,1-8.728,2.567A19.859,19.859,0,0,1,194.791,53.7a10.806,10.806,0,0,1-3.454-3.944c-.117-.233-.35-.677-.7-1.353-.607.327-1.05.56-1.307.7l-6.067,3.36s-.327.187-.653.4c.14.327.233.56.3.7a19.817,19.817,0,0,0,8.914,8.961,31.272,31.272,0,0,0,15.028,3.524,26.489,26.489,0,0,0,11.271-2.264Z" transform="translate(242.946 -0.117)" fill="#18181a" fill-rule="evenodd"/>
        <path id="Fill-2" d="M132.25,8.617h-1.26c.233.583.4.957.467,1.143l17.362,44.805-8.471,19.742c-.093.21-.28.607-.537,1.167H149.4c.093-.257.163-.443.21-.537l25.53-65.2c.07-.187.233-.583.443-1.167h-9.638a5.078,5.078,0,0,0-.21.56L153.556,42.8,141.351,9.13l-.187-.56h-8.938Z" transform="translate(174.105 10.846)" fill="#18181a" stroke="#18181a" stroke-width="0.5" fill-rule="evenodd"/>
        <path id="Fill-3" d="M126.252,10.24a14.525,14.525,0,0,0-5.811,6l-.7-6.954H112.18V54.719H121.4V28.652a12.1,12.1,0,0,1,3.1-8.681,10.521,10.521,0,0,1,8-3.29,9.29,9.29,0,0,1,7.281,3.034,11.9,11.9,0,0,1,2.707,8.168V54.719h9.124V25.969a20.27,20.27,0,0,0-2.1-9.381,15.157,15.157,0,0,0-5.857-6.3A16.769,16.769,0,0,0,135,8.07a17.36,17.36,0,0,0-8.728,2.17Z" transform="translate(149.02 10.179)" fill="#18181a" stroke="#18181a" stroke-width="0.5" fill-rule="evenodd"/>
        <path id="Fill-4" d="M121.974,43.284a11.525,11.525,0,0,1-9.334,4.294,11.707,11.707,0,0,1-9.428-4.294c-2.38-2.87-3.57-6.6-3.57-11.248s1.19-8.471,3.57-11.341a11.644,11.644,0,0,1,9.428-4.294,11.462,11.462,0,0,1,9.334,4.294q3.57,4.305,3.57,11.341C125.544,36.727,124.354,40.414,121.974,43.284ZM132.1,19.528a20.807,20.807,0,0,0-7.888-8.471A22.1,22.1,0,0,0,112.639,8.07a22.555,22.555,0,0,0-11.621,2.987,20.727,20.727,0,0,0-7.911,8.424A26.7,26.7,0,0,0,90.26,32.036,26.319,26.319,0,0,0,93.107,44.5a20.727,20.727,0,0,0,7.911,8.424,24.01,24.01,0,0,0,23.2,0A20.986,20.986,0,0,0,132.1,44.5a26.518,26.518,0,0,0,2.847-12.461A26.778,26.778,0,0,0,132.1,19.528Z" transform="translate(119.788 10.179)" fill="#18181a" stroke="#18181a" stroke-width="0.5" fill-rule="evenodd"/>
        <path id="Fill-5" d="M109.862,8.07a16.948,16.948,0,0,0-8.658,2.264,14.672,14.672,0,0,0-5.9,6.254,15.785,15.785,0,0,0-5.647-6.254A14.8,14.8,0,0,0,81.509,8.07a15.521,15.521,0,0,0-8.144,2.17,14.1,14.1,0,0,0-5.554,5.9L67.2,9.283H59.55V54.719h9.218V27.7a11.308,11.308,0,0,1,2.847-8,9.56,9.56,0,0,1,7.328-3.034,8.54,8.54,0,0,1,6.721,2.824A10.98,10.98,0,0,1,88.16,27V54.719h9.124V27.7a11.308,11.308,0,0,1,2.847-8,9.643,9.643,0,0,1,7.4-3.034,8.376,8.376,0,0,1,6.674,2.824A11.075,11.075,0,0,1,116.653,27V54.719h9.124V25.969a20.816,20.816,0,0,0-1.984-9.288,15,15,0,0,0-5.6-6.347,15.405,15.405,0,0,0-8.354-2.264" transform="translate(78.833 10.179)" fill="#18181a" stroke="#18181a" stroke-width="0.5" fill-rule="evenodd"/>
        <path id="Fill-6" d="M59.938,10.264a13.135,13.135,0,0,0-5.251,5.507L54.1,9H45.75V54.439h9.218V28.372a10.948,10.948,0,0,1,3.267-8.308c2.17-2.054,5.134-3.08,8.868-3.08a29.313,29.313,0,0,1,3.454.187,4.683,4.683,0,0,1,.91.187v-8.7a5.367,5.367,0,0,0-.7-.163,15.935,15.935,0,0,0-2.754-.21,16.129,16.129,0,0,0-8.1,1.96Z" transform="translate(60.429 10.459)" fill="#18181a" stroke="#18181a" stroke-width="0.5" fill-rule="evenodd"/>
        <g id="编组">
          <path id="Fill-7" d="M54.5,37.29a11.075,11.075,0,0,1-2.964,8.028,10.672,10.672,0,0,1-8.051,3.08,10.329,10.329,0,0,1-6.464-1.914,6.167,6.167,0,0,1-2.5-5.134,6.412,6.412,0,0,1,2.707-5.3,11.243,11.243,0,0,1,7.094-2.077h9.311a.837.837,0,0,1,.84.84v2.45ZM45.376,8.1a23.61,23.61,0,0,0-10.758,2.38,18.532,18.532,0,0,0-6.977,5.974c-.093.14-.21.35-.4.677a6.913,6.913,0,0,0,.583.467l5.134,3.944c.14.117.373.28.723.537.21-.35.373-.583.443-.7a12.821,12.821,0,0,1,4.294-3.71,13.635,13.635,0,0,1,6.417-1.517,9.865,9.865,0,0,1,7.047,2.427c1.727,1.61,2.59,3.99,2.59,7.117v1.47H44.069a24.048,24.048,0,0,0-9.731,1.867,15.548,15.548,0,0,0-6.581,5.2A12.9,12.9,0,0,0,25.4,41.911a12.3,12.3,0,0,0,4.481,9.871q4.481,3.78,11.621,3.78a18.006,18.006,0,0,0,8.354-1.82,12.791,12.791,0,0,0,5.414-5.134l.7,6.091h7.561V24.455q0-7.806-4.9-12.111c-3.267-2.87-7.7-4.294-13.255-4.294Z" transform="translate(33.29 10.152)" fill="#18181a" stroke="#18181a" stroke-width="0.5" fill-rule="evenodd"/>
          <path id="Fill-9" d="M9.888.81H.25V64.4H9.888V36h31.76V64.4h9.638V.81H41.648V27.133H9.888Z" transform="translate(-0.25 0.497)" fill="#18181a" stroke="#18181a" stroke-width="0.5" fill-rule="evenodd"/>
          <path id="椭圆形-6" d="M185.874.25A33.139,33.139,0,1,1,153.04,33.387,32.991,32.991,0,0,1,185.874.25Zm0,9.241a23.9,23.9,0,1,0,23.663,23.9,23.774,23.774,0,0,0-23.663-23.9Z" transform="translate(203.511 -0.25)" fill="#18181a" stroke="#18181a" stroke-width="0.5" fill-rule="evenodd"/>
          <rect id="矩形" width="44.292" height="9.241" transform="translate(367.239 77.056)" fill="#1f69ff"/>
        </g>
      </g>
      <g id="NEXT" transform="translate(508.975 0.25)">
        <path id="路径" d="M228.145.29l28.937,45.9V.29h10.175v64.9H257.081l-28.937-46v46H218.25V.29Z" transform="translate(-218.25 -0.197)" fill="#18181a" stroke="#18181a" stroke-width="0.2"/>
        <path id="路径-2" data-name="路径" d="M283.7,36.071h-31.13V56.817H283.7v8.424H243.07V.25H283.7V8.674h-31.13V27.74H283.7Z" transform="translate(-185.15 -0.25)" fill="#18181a" stroke="#18181a" stroke-width="0.5"/>
        <path id="形状结合" d="M313.315,40.138l17.992,25.086H319.592L307.5,48.1l5.787-7.958ZM285.451.3,307.434,31.97l-5.624,7.981L284.051,65.2H273.06l23.593-32.9L273.783.28h11.668Zm45.085,0L313.618,23.9l-5.274-7.561L319.545.3h10.991Z" transform="translate(-145.155 -0.21)" fill="#18181a" stroke="#18181a" stroke-width="0.5"/>
        <path id="路径备份-2" d="M297.644,32.214l-5.857,7.7L274.051,65.187H263.06l23.593-32.88L263.783.29h11.691L292.51,24.676Z" transform="translate(-158.491 -0.197)" fill="#1f69ff" stroke="#1f69ff" stroke-width="0.5"/>
        <path id="路径-3" data-name="路径" d="M300.83.29H350.4V8.714H330.35V65.187h-9.568V8.714H300.83Z" transform="translate(-108.121 -0.197)" fill="#18181a" stroke="#18181a" stroke-width="0.5"/>
      </g>
    </g>
    <g id="小标" transform="translate(-7862.01 -21111.541)">
      <path id="路径_53625" data-name="路径 53625" d="M2.589,12.308c1.508,1.349,3.531,3.332,6.149,5.951l-2.777,2.42Q3.342,17.7.01,14.371l2.618-2.063Zm2.42,12.853c1.23.476,2.42.912,3.531,1.309-.873,3.729-2.1,9.561-3.729,17.495L1.081,42.855c1.23-4.6,2.539-10.473,3.888-17.654ZM3.7.764C5.683,2.629,7.587,4.612,9.452,6.715L6.675,9.135c-1.746-2.1-3.531-4.205-5.4-6.308Zm4.84,30.348c.476-.119,1.23-.317,2.222-.555,1.349-.357,2.42-.635,3.174-.754V10.841H9.293V7.667H22.107v3.174h-4.84v18.05a47.543,47.543,0,0,1,5.038-1.508,17.7,17.7,0,0,0,.357,3.332c-2.856.754-7.26,2.063-13.21,3.888l-.912-3.531Zm13.012.555H37.539v2.975H21.551ZM29.724.05l3.531.555A19.69,19.69,0,0,1,32.5,3.779a7.333,7.333,0,0,1-.357.912h9.124c0,1.865-.079,4.6-.2,8.172-.119,1.111-.2,1.9-.2,2.42,0,4.205-2.3,6.268-6.863,6.149H29.724c-.238-1.111-.476-2.222-.754-3.332a41.91,41.91,0,0,0,4.642.2c2.46.119,3.848-1.071,4.086-3.531V11.594c.119-1.865.2-3.174.2-3.888H26.748V24.051H43.49c-.119,3.967-.317,7.815-.555,11.544.238,5.713-2.777,8.371-9.124,8.014-1.865.119-4.046.2-6.506.2a10.487,10.487,0,0,0-.912-3.729h3.332c1.865.119,3.174.2,3.888.2,4.205.357,6.189-1.23,5.951-4.84.238-2.46.357-5.2.357-8.172H23.575V4.692h4.84A23.33,23.33,0,0,0,29.525.8a3.492,3.492,0,0,0,.2-.754ZM28.613,10.841l2.063-1.666,4.84,4.84L33.1,16.077c-.754-.992-1.984-2.42-3.729-4.284a4.253,4.253,0,0,1-.754-.912Z" transform="translate(0 0.178)"/>
      <path id="路径_53626" data-name="路径 53626" d="M42.812.09h3.174V3.621H59.751V6.4H45.985V9.175H42.812V6.4H32.021V9.175H28.848V6.4H15.28V3.621H28.848V.09h3.174V3.621H42.812ZM15.677,28.574a89.825,89.825,0,0,0,18.05-5.2H16.986V20.6h41.1v2.777H38.567c-.635.357-1.309.754-2.063,1.111a17.478,17.478,0,0,1,3.531,4.284,95.635,95.635,0,0,0,13.409-5.038l1.666,2.777a19.155,19.155,0,0,1-2.42.912c-2.618.873-4.6,1.547-5.951,2.063,2.1,4.84,6.506,8.014,13.21,9.481-.992,1.23-1.785,2.3-2.42,3.174C51.1,39.92,46.5,35.992,43.764,30.438a5.639,5.639,0,0,1-1.309.357,8.559,8.559,0,0,1-1.309.555,11.808,11.808,0,0,1,.912,4.642c.238,5.2-2.5,7.815-8.172,7.815h-5.2a6.164,6.164,0,0,0-.754-3.174h2.618c1.507.119,2.618.2,3.332.2,3.61.238,5.276-1.428,5.038-5.038a6.838,6.838,0,0,0-.357-2.063q-7.438,5.594-21.581,9.68c-.476-.873-1.071-1.785-1.666-2.777q14.52-3.332,22.3-9.481a1.876,1.876,0,0,1-.357-.754,2.337,2.337,0,0,0-.555-1.111q-7.26,4.82-18.963,8.014a1.876,1.876,0,0,1-.357-.754c-.754-.992-1.23-1.666-1.507-2.063,8.688-1.865,15.115-4.284,19.359-7.26l-.555-.555a3.206,3.206,0,0,0-.912-.912,159.332,159.332,0,0,1-16.344,5.594,18,18,0,0,0-1.666-2.777Zm1.111-18.447h41.3v6.7H54.911V12.745H19.961v4.086H16.787v-6.7Zm6.506,5.237H51.539v2.618H23.294V15.363Z" transform="translate(45.308 0.297)"/>
      <path id="路径_53627" data-name="路径 53627" d="M30.747,23.744c.357-.119,1.071-.357,2.063-.754,1.507-.476,2.618-.873,3.332-1.111V11.645H31.1V8.471h5.038V.14h3.332V8.511h5.038v3.174H39.475V20.61A21.818,21.818,0,0,1,41.7,19.7a15.612,15.612,0,0,1,2.063-.754v3.531a4.415,4.415,0,0,1-.912.357,15.105,15.105,0,0,1-3.332,1.309V37.907c.357,3.729-1.23,5.475-4.84,5.2a18.748,18.748,0,0,1-3.729,0,31.309,31.309,0,0,0-.555-3.531c1.746.119,3.055.2,3.888.2,1.507.238,2.1-.357,1.865-1.865V25.45c-1.627.754-3.293,1.428-5.038,2.063l-.357-3.729ZM41.141,39.732a40.3,40.3,0,0,0,14.52-8.371H43.2V28.584H57.168V26.363h3.174v2.222H75.02v2.777H61.611a31.076,31.076,0,0,0,14.123,8.014c-.754,1.111-1.508,2.1-2.222,2.975Q64.229,38.6,60.3,33.424V44.016H57.128V33.424a44.86,44.86,0,0,1-13.766,9.283A8.183,8.183,0,0,0,41.141,39.732Zm3.927-24.913h11.9V25.053h-11.9V14.818Zm2.975,2.817v4.642h6.149V17.635ZM48.242,2H69.625V12.24H48.242Zm3.134,2.618v4.84H66.451V4.623Zm9.323,10.2H72.8V25.053H60.7V14.818Zm2.777,2.618v4.84h6.506v-4.84Z" transform="translate(90.141 0.445)"/>
      <path id="路径_53628" data-name="路径 53628" d="M45.67,22.425C49.756,16.712,53.247,9.333,56.064.288l3.729.912c-1.23,3.491-2.618,6.863-4.086,10.235v32.53H52.176V18.656c-1.746,2.975-3.332,5.514-4.84,7.617-.476-1.111-1.071-2.42-1.666-3.888ZM58.127,18.5A67.966,67.966,0,0,0,67.806.09l3.531.754a50.022,50.022,0,0,1-2.618,6.308h21.74v3.332H74.114V18.3h14.52v3.332H74.114v8.014H89.189v3.174H74.114V43.966H70.583V10.523H67.251a89.524,89.524,0,0,1-6.308,10.394,15.819,15.819,0,0,0-2.777-2.42Z" transform="translate(135.478 0.297)"/>
      <path id="路径_53629" data-name="路径 53629" d="M72.693,29.846l2.975,2.063a122.454,122.454,0,0,1-12.1,9.124L60.95,38.415a66.155,66.155,0,0,0,11.7-8.569ZM91.655,17.389c4.324,3.61,8.569,7.26,12.655,10.989L101.335,30.6,97.8,27.069q-7.438.357-12.258.357v9.481q.179,5.594-5.594,5.594H74.359a16.907,16.907,0,0,0-.555-2.975,1.564,1.564,0,0,1-.2-.555H75.47c1.627.119,2.856.2,3.729.2q3.154.179,2.975-2.618V27.624c-5.078.119-9.243.317-12.457.555a43.786,43.786,0,0,0-5.038.357L63.37,25.363a17.619,17.619,0,0,0,5.4-2.063c4.205-1.865,8.49-4.046,12.814-6.506-1.627.119-4.205.238-7.815.357-1.746.119-3.055.2-3.888.2a24.265,24.265,0,0,0-3.729.555L64.838,14.93a18.336,18.336,0,0,0,4.086-1.865c2.1-1.23,5.4-3.293,9.838-6.149q1.666-1.131,2.618-1.666c-1.865.119-4.443.238-7.815.357-4.205.238-7.3.436-9.283.555a10.976,10.976,0,0,0-.754-3.332C78.881,2.076,91.616,1.283,101.653.41l.912,3.174c-7.18.635-13.647,1.111-19.32,1.508L85.467,6.6c-5.316,3.213-10,5.871-13.964,8.014,1.746-.119,4.761-.238,9.124-.357,2.618-.119,4.522-.2,5.752-.2A96.647,96.647,0,0,0,95.5,8.106l3.174,2.42A288.693,288.693,0,0,1,71.145,25.2q13.389-.357,23.446-.912c-.635-.635-1.666-1.547-3.174-2.777A28.738,28.738,0,0,1,89,19.452l2.618-2.063ZM89.989,32.068l2.222-2.42c2.341,1.627,5.832,4.046,10.394,7.26a13.538,13.538,0,0,0,2.063,1.309l-2.618,2.777c-.476-.357-1.19-.912-2.063-1.666-2.856-2.222-6.189-4.642-10.037-7.26Z" transform="translate(180.816 1.246)"/>
      <path id="路径_53630" data-name="路径 53630" d="M76.15,37.241a9.506,9.506,0,0,0,1.309-.2c4.205-.754,8.926-1.746,14.123-2.975-.119,1.23-.2,2.42-.2,3.531-4.721.873-9.481,1.785-14.321,2.777L76.15,37.2Zm5.792-9.68c1.23-.238,3.293-.555,6.149-.912,1.746-.238,2.9-.436,3.531-.555a12.738,12.738,0,0,1-.2,1.666,5.553,5.553,0,0,1-.2,1.666c-5.2.754-9.6,1.428-13.21,2.063L77.1,28.315c1.507-1.111,4.165-4.324,8.014-9.68a43.711,43.711,0,0,0-7.815.555l-.912-3.174Q81.029,11.2,86.068.228L89.4,1.537a120.491,120.491,0,0,1-8.926,14.321c3.094,0,5.276-.079,6.506-.2a28.986,28.986,0,0,0,2.975-5.2l2.975,1.666A128.248,128.248,0,0,1,81.942,27.561ZM91.027,6.337h13.568c-.119-.238-.436-.793-.912-1.666A31,31,0,0,0,102.016,1.5L105.189-.01c.873,1.508,1.9,3.293,3.174,5.4L106.5,6.3h13.766V9.63h-18.05l2.222.912a75.451,75.451,0,0,1-7.26,9.283c2.341,0,5.951-.119,10.791-.357,2.1-.119,3.729-.2,4.84-.2-1.111-1.746-2.222-3.412-3.332-5.038l2.777-1.865c2.1,2.856,4.721,6.7,7.815,11.544a1.876,1.876,0,0,1-.754.357q-1.666,1.131-2.618,1.666c-.238-.476-.555-1.111-.912-1.865-.476-.873-.873-1.507-1.111-1.865-1.507.119-2.975.2-4.443.2v14.52c-.119,1.984.873,2.9,2.975,2.777h1.507a2.121,2.121,0,0,0,2.42-1.865,49.907,49.907,0,0,0,.357-5.951,23.759,23.759,0,0,0,3.531,1.309,35.533,35.533,0,0,1-.555,4.84,6.545,6.545,0,0,0-.2.912c-.754,2.618-2.341,3.967-4.84,4.086h-2.975c-3.729,0-5.594-1.9-5.594-5.752V22.761c-1.627,0-3.174.079-4.642.2.238,11.029-3.769,18.209-12.1,21.581-1.23-1.746-1.984-2.737-2.222-2.975q6.308-2.618,8.569-6.308c1.508-2.341,2.222-6.387,2.222-12.1a15.319,15.319,0,0,1-2.42.2,9.5,9.5,0,0,0-1.309.2c-.992.119-1.785.238-2.42.357l-1.507-3.531A7.371,7.371,0,0,0,94.2,18.318a84.921,84.921,0,0,0,6.308-8.728H91.027V6.258Z" transform="translate(225.916 0)"/>
      <path id="路径_53631" data-name="路径 53631" d="M107.977,15.232a9.923,9.923,0,0,1,3.769,4.007,12.472,12.472,0,0,1,1.349,5.792,12.076,12.076,0,0,1-1.468,5.99,10.817,10.817,0,0,1-4.046,4.086,11.547,11.547,0,0,1-5.713,1.468,11.146,11.146,0,0,1-6.149-1.746,8.933,8.933,0,0,1-3.729-5.078L95.4,27.808a7.168,7.168,0,0,0,2.5,3.65,6.385,6.385,0,0,0,3.967,1.23,6.269,6.269,0,0,0,4.959-2.1,8,8,0,0,0,1.825-5.4,8.311,8.311,0,0,0-1.746-5.4,5.986,5.986,0,0,0-5.038-2.182A7.239,7.239,0,0,0,95.4,21.381l-2.7-1.388L95.084,1.03h16.464V4.759H98.774L97.385,15.074a9.4,9.4,0,0,1,5.078-1.349,10.53,10.53,0,0,1,5.514,1.468Z" transform="translate(272.915 3.086)"/>
    </g>
  </g>
</svg>
