<svg xmlns="http://www.w3.org/2000/svg" xmlns:xlink="http://www.w3.org/1999/xlink" width="36" height="36" viewBox="0 0 36 36">
  <defs>
    <clipPath id="clip-path">
      <rect id="矩形_37372" data-name="矩形 37372" width="36" height="36" transform="translate(392 887)" fill="#d9d9d9"/>
    </clipPath>
  </defs>
  <g id="蒙版组_60105" data-name="蒙版组 60105" transform="translate(-392 -887)" clip-path="url(#clip-path)">
    <path id="路径_53584" data-name="路径 53584" d="M0,17.93A14.008,14.008,0,0,1,12.327,4.02L10.988,2.68A1.567,1.567,0,0,1,13.2.461L17.243,4.5a1.087,1.087,0,0,1,.081.074,1.579,1.579,0,0,1,0,2.229c-.025.021-.051.047-.077.068L13.2,10.912A1.566,1.566,0,0,1,10.988,8.7l1.543-1.541A10.87,10.87,0,1,0,24.87,17.93h0v-.006a1.567,1.567,0,0,1,3.135,0c0,.047,0,.1-.007.143A14,14,0,0,1,0,17.93Z" transform="matrix(0.914, 0.407, -0.407, 0.914, 403.582, 883.963)" fill="#6d6f72"/>
  </g>
</svg>
